# xmcd
#
# Track frame offsets:
#	150
#	25770
#	45402
#	65155
#	83580
#	111802
#	128542
#	149427
#	173120
#	193832
#
# Disc length: 2778 seconds
#
# Revision: 1
# Processed by: cddbd v1.5.1PL2 Copyright (c) Steve Scherf et al.
# Submitted via: audiograbber 1.83.01
#
DISCID=830ad80a
DTITLE=Jordan Patterson - Give Me A Chance
DYEAR=1995
DGENRE=Blues
TTITLE0=Funky Thang
TTITLE1=Those Pretty Eyes
TTITLE2=Life Of Misery
TTITLE3=No Educated Woman
TTITLE4=The Thing I Do For You
TTITLE5=Blues Hotel
TTITLE6=Give Me A Chance
TTITLE7=Your Love Is Killing Me
TTITLE8=The Fast Lane
TTITLE9=Natural
EXTD=
EXTT0=
EXTT1=
EXTT2=
EXTT3=
EXTT4=
EXTT5=
EXTT6=
EXTT7=
EXTT8=
EXTT9=
PLAYORDER=
